<?xml version="1.0" encoding="utf-8"?>
<!-- Generator: Adobe Illustrator 19.1.0, SVG Export Plug-In . SVG Version: 6.00 Build 0)  -->
<!DOCTYPE svg PUBLIC "-//W3C//DTD SVG 1.1//EN" "http://www.w3.org/Graphics/SVG/1.1/DTD/svg11.dtd">
<svg preserveAspectRatio="xMinYMin meet" version="1.1" id="Layer_1" xmlns="http://www.w3.org/2000/svg" xmlns:xlink="http://www.w3.org/1999/xlink" x="0px" y="0px"
	 viewBox="-283 359 34 35" style="enable-background:new -283 359 34 35;" xml:space="preserve">
<g>
	<g>
		<g>
			<g>
				<circle class="hide-icon-background" cx="-266" cy="375.9" r="14"/>
				<path class="hide-icon-background" d="M-280.5,375.9c0-8,6.5-14.5,14.5-14.5s14.5,6.5,14.5,14.5s-6.5,14.5-14.5,14.5S-280.5,383.9-280.5,375.9z
					 M-279.5,375.9c0,7.4,6.1,13.5,13.5,13.5c7.4,0,13.5-6.1,13.5-13.5s-6.1-13.5-13.5-13.5C-273.4,362.4-279.5,368.5-279.5,375.9z"
					/>
			</g>
		</g>
	</g>
	<g>
		<g>
			<g>
				<polygon class="hide-icon-foreground" points="-265.4,383.1 -258.6,377.2 -261.2,374.2 -264.3,376.9 -268.9,368.7 -272.4,370.6 				"/>
			</g>
		</g>
	</g>
</g>
</svg>
