<?xml version="1.0" encoding="utf-8"?>
<!DOCTYPE svg PUBLIC "-//W3C//DTD SVG 1.1//EN" "http://www.w3.org/Graphics/SVG/1.1/DTD/svg11.dtd">
<svg preserveAspectRatio="xMinYMin meet" version="1.1" id="Layer_1" xmlns="http://www.w3.org/2000/svg" xmlns:xlink="http://www.w3.org/1999/xlink" x="0px" y="0px"
	 viewBox="-129.5 127 34 35" style="enable-background:new -129.5 127 34 35;" xml:space="preserve">
<style type="text/css">
	.st0{fill:#D0CAC5;stroke:#E6E3E0;stroke-width:0.75;stroke-miterlimit:10;}
	.st1{fill:#B3ABA4;stroke:#CDC7C2;stroke-width:0.5;stroke-miterlimit:10;}
</style>
<path class="st0" d="M-112.9,160.4c-8.5,0-15.5-6.9-15.5-15.5c0-8.5,6.9-15.5,15.5-15.5s15.5,6.9,15.5,15.5
	C-97.4,153.5-104.3,160.4-112.9,160.4z"/>
<path class="st1" d="M-113.2,159c-8,0-14.5-6.5-14.5-14.5s6.5-14.5,14.5-14.5s14.5,6.5,14.5,14.5S-105.2,159-113.2,159z"/>
<g>
	<g>
		<g>
			<circle class="show-icon-background" cx="-114.2" cy="143.5" r="14"/>
			<path class="show-icon-border" d="M-114.2,158c-8,0-14.5-6.5-14.5-14.5s6.5-14.5,14.5-14.5s14.5,6.5,14.5,14.5S-106.2,158-114.2,158z
				 M-114.2,130c-7.4,0-13.5,6.1-13.5,13.5s6.1,13.5,13.5,13.5s13.5-6.1,13.5-13.5S-106.8,130-114.2,130z"/>
		</g>
	</g>
</g>
<g>
	<g>
		<g>
			<polygon class="show-icon-foreground" points="-114.8,150.7 -121.6,144.8 -119,141.8 -115.9,144.5 -111.3,136.3 -107.8,138.2 			"/>
		</g>
	</g>
</g>
</svg>
