<svg preserveAspectRatio="xMinYMin meet" viewBox="-135 129 16 32">,
  <path class="hide-icon-background" d="M-122,141.1c0-3.7-3.3-6.6-7.1-5.8c-2.4,0.5-4.3,2.4-4.7,4.8c-0.4,2.3,0.6,4.4,2.2,5.7c0.4,0.3,0.6,0.8,0.6,1.3v1.9h6.1v-1.9c0-0.5,0.2-1,0.6-1.3C-122.8,144.7-122,143-122,141.1z"/>,
  <path class="hide-icon-background" d="M-125.7,153h-4.5c-0.4,0-0.8-0.4-0.8-0.8v-1.6h6.1v1.6C-124.9,152.7-125.2,153-125.7,153z"/>,
  <path class="hide-icon-foreground" d="M-130.4,142.1c0-2.1,1.7-3.9,3.9-3.9c0.3,0,0.5,0,0.8,0.1c-0.6-0.8-1.5-1.3-2.6-1.3c-1.8,0-3.3,1.5-3.3,3.3c0,1.1,0.5,2,1.3,2.6C-130.4,142.6-130.4,142.4-130.4,142.1z"/>,
</svg>