<svg preserveAspectRatio="xMinYMin meet" viewBox="-129 128 34 34">
  <circle class="hide-rationale-background" cx="-113" cy="144" r="14"/>
  <rect x="-115" y="136.7" class="hide-rationale-foreground" width="3" height="3"/>
  <polygon class="hide-rationale-foreground" points="-112,147.7 -112,141.7 -115.8,141.7 -115.8,143.7 -114,143.7 -114,147.7 -116.2,147.7 -116.2,149.7 -109.8,149.7 -109.8,147.7"/>
  <path class="hide-rationale-background" d="M-113,158.5c-8,0-14.5-6.5-14.5-14.5s6.5-14.5,14.5-14.5s14.5,6.5,14.5,14.5S-105,158.5-113,158.5zM-113,130.5c-7.4,0-13.5,6.1-13.5,13.5s6.1,13.5,13.5,13.5s13.5-6.1,13.5-13.5S-105.6,130.5-113,130.5z"/>
</svg>
