<?xml version="1.0" encoding="utf-8"?>
<!-- Generator: Adobe Illustrator 19.1.0, SVG Export Plug-In . SVG Version: 6.00 Build 0)  -->
<!DOCTYPE svg PUBLIC "-//W3C//DTD SVG 1.1//EN" "http://www.w3.org/Graphics/SVG/1.1/DTD/svg11.dtd">
<svg version="1.1" id="Layer_1" xmlns="http://www.w3.org/2000/svg" xmlns:xlink="http://www.w3.org/1999/xlink" x="0px" y="0px"
	 viewBox="-128 129 31 31" style="enable-background:new -128 129 31 31;" xml:space="preserve">
<style type="text/css">
	.st0{fill:#D0CAC5;stroke:#E6E3E0;stroke-width:0.75;stroke-linejoin:round;stroke-miterlimit:10;}
	.st1{fill:#B3ABA4;stroke:#CDC7C2;stroke-width:0.5;stroke-linecap:round;stroke-linejoin:round;stroke-miterlimit:10;}
	.st2{fill:#7FABC6;}
	.st3{fill:none;stroke:#BCE2FF;stroke-width:2;stroke-miterlimit:10;}
</style>
<g>
	<g>
		<g>
			<g>
				<rect x="-123.9" y="135.3" class="st0" width="4.1" height="4.1"/>
				<polygon class="st0" points="-119.8,150.4 -119.8,142.2 -125,142.2 -125,144.9 -122.6,144.9 -122.6,150.4 -125.6,150.4 
					-125.6,153.2 -116.8,153.2 -116.8,150.4 				"/>
			</g>
		</g>
	</g>
	<g>
		<g>
			<g>
				<rect x="-124.7" y="134.7" class="st1" width="4.1" height="4.1"/>
				<polygon class="st1" points="-120.6,149.8 -120.6,141.5 -125.8,141.5 -125.8,144.3 -123.3,144.3 -123.3,149.8 -126.4,149.8 
					-126.4,152.5 -117.6,152.5 -117.6,149.8 				"/>
			</g>
		</g>
	</g>
	<g>
		<g>
			<g>
				<rect x="-125.5" y="134" class="st2" width="4.1" height="4.1"/>
				<polygon class="st2" points="-121.4,149.1 -121.4,140.9 -126.5,140.9 -126.5,143.6 -124.1,143.6 -124.1,149.1 -127.1,149.1 
					-127.1,151.9 -118.4,151.9 -118.4,149.1 				"/>
			</g>
		</g>
	</g>
	<g>
		<line class="st3" x1="-98" y1="142" x2="-114.6" y2="142"/>
		<line class="st3" x1="-98" y1="146.3" x2="-114.6" y2="146.3"/>
		<line class="st3" x1="-104" y1="150.7" x2="-114.6" y2="150.7"/>
	</g>
</g>
</svg>
