<svg preserveAspectRatio="xMinYMin meet" viewBox="-129.5 127 34 35">
  <path style="fill:#B3ABA4;stroke:#CDC7C2;stroke-width:0.5;stroke-miterlimit:10;"
        d="M-113.2,159c-8,0-14.5-6.5-14.5-14.5s6.5-14.5,14.5-14.5s14.5,6.5,14.5,14.5S-105.2,159-113.2,159z"/>
  <circle class="show-icon-background"  cx="-114.2" cy="143.5" r="14"/>
  <path class="show-icon-border"
        d="M-114.2,158c-8,0-14.5-6.5-14.5-14.5s6.5-14.5,14.5-14.5s14.5,6.5,14.5,14.5S-106.2,158-114.2,158zM-114.2,130c-7.4,0-13.5,6.1-13.5,13.5s6.1,13.5,13.5,13.5s13.5-6.1,13.5-13.5S-106.8,130-114.2,130z"/>
  <polygon class="show-icon-foreground"
           points="-114.8,150.7 -121.6,144.8 -119,141.8 -115.9,144.5 -111.3,136.3 -107.8,138.2 			"/>
</svg>
