<?xml version="1.0" encoding="utf-8"?>
<!-- Generator: Adobe Illustrator 19.2.1, SVG Export Plug-In . SVG Version: 6.00 Build 0)  -->
<svg version="1.1" id="Layer_1" xmlns="http://www.w3.org/2000/svg" xmlns:xlink="http://www.w3.org/1999/xlink" x="0px" y="0px"
	 viewBox="0 0 58 58" style="enable-background:new 0 0 58 58;" xml:space="preserve">
<g>
	<path class="button-bg" d="M52.7,55.7H5.3c-1.7,0-3-1.3-3-3V5.3c0-1.7,1.3-3,3-3h47.5c1.7,0,3,1.3,3,3v47.5
		C55.7,54.4,54.4,55.7,52.7,55.7z"/>
</g>
<g>
	<path class="symbol" d="M29.2,27.4l6.3-6.3l1.5,1.5l-6.3,6.3l6.2,6.2l-1.5,1.5l-6.2-6.2l-6.3,6.3l-1.5-1.5l6.3-6.3l-6.2-6.2l1.5-1.5
		L29.2,27.4z"/>
</g>
<g>
	<path class="symbol" d="M39.3,21.8c0,0,0-0.1,0-0.2c0-0.1,0-0.1,0-0.2c0-0.7,0.1-1.3,0.3-1.9c0.2-0.5,0.5-1,0.9-1.4
		c0.4-0.4,0.8-0.8,1.3-1.1c0.5-0.3,1-0.7,1.6-1.1c0.3-0.2,0.5-0.3,0.6-0.5c0.2-0.2,0.4-0.3,0.5-0.5c0.1-0.2,0.2-0.4,0.3-0.5
		c0-0.2,0.1-0.4,0.1-0.6c0-0.3,0-0.5-0.1-0.8s-0.2-0.4-0.4-0.6c-0.2-0.2-0.4-0.3-0.7-0.4c-0.3-0.1-0.5,0-0.8,0c-0.4,0-0.8,0-1.1,0.1
		s-0.5,0.2-0.7,0.4s-0.3,0.4-0.4,0.7c-0.1,0.3-0.1,0.5-0.1,0.9h-0.9v-2c0.2-0.1,0.4-0.3,0.6-0.4c0.2-0.1,0.5-0.2,0.8-0.3
		s0.6-0.1,0.9-0.2c0.3,0,0.7,0,1.1,0c0.5,0,1,0,1.3,0.2c0.4,0.1,0.7,0.3,1,0.5s0.5,0.5,0.6,0.9s0.2,0.7,0.2,1.1c0,0.4,0,0.7-0.2,1.1
		c-0.1,0.3-0.3,0.5-0.6,0.8c-0.3,0.3-0.6,0.5-1,0.8s-0.9,0.6-1.4,0.9s-0.9,0.6-1.2,0.9s-0.5,0.6-0.7,0.9s-0.3,0.5-0.4,0.8
		s-0.2,0.5-0.2,0.8h4.2c0.1,0,0.2,0,0.3-0.1c0.1,0,0.1-0.1,0.2-0.3c0-0.2,0-0.4,0-0.6c0-0.3,0-0.6,0-1.1H46v3.1
		C46.1,21.8,39.3,21.8,39.3,21.8z"/>
</g>
</svg>
