<svg preserveAspectRatio="xMinYMin meet" viewBox="-129 128 34 34">
  <path style="fill:#D0CAC5;stroke:#E6E3E0;stroke-width:0.75;stroke-miterlimit:10;" d="M-111.7,160.9c-8.5,0-15.5-6.9-15.5-15.5c0-8.5,6.9-15.5,15.5-15.5s15.5,6.9,15.5,15.5C-96.2,154-103.1,160.9-111.7,160.9z"/>
  <path style="fill:#B3ABA4;stroke:#CDC7C2;stroke-width:0.5;stroke-miterlimit:10;" d="M-112,159.5c-8,0-14.5-6.5-14.5-14.5s6.5-14.5,14.5-14.5s14.5,6.5,14.5,14.5S-104,159.5-112,159.5z"/>
  <circle style="fill:#FFFFFF;" cx="-113" cy="144" r="14"/>
  <rect x="-115" y="136.7" class="show-rationale-foreground" width="3" height="3"/>
  <polygon class="show-rationale-foreground" points="-112,147.7 -112,141.7 -115.8,141.7 -115.8,143.7 -114,143.7 -114,147.7 -116.2,147.7 -116.2,149.7 -109.8,149.7 -109.8,147.7"/>
  <path class="hide-show-border" d="M-113,158.5c-8,0-14.5-6.5-14.5-14.5s6.5-14.5,14.5-14.5s14.5,6.5,14.5,14.5S-105,158.5-113,158.5zM-113,130.5c-7.4,0-13.5,6.1-13.5,13.5s6.1,13.5,13.5,13.5s13.5-6.1,13.5-13.5S-105.6,130.5-113,130.5z"/>
</svg>